<svg width="32" height="32" viewBox="0 0 32 32" fill="none" xmlns="http://www.w3.org/2000/svg">
<path d="M16 25C16.5523 25 17 24.5523 17 24C17 23.4477 16.5523 23 16 23C15.4477 23 15 23.4477 15 24C15 24.5523 15.4477 25 16 25Z" fill="white"/>
<path fill-rule="evenodd" clip-rule="evenodd" d="M15.1616 6.54583L15.1704 6.5583L16 7.80278L16.8298 6.55805L16.8384 6.54583C16.8479 6.5324 16.8649 6.50903 16.8892 6.47714C16.9379 6.41326 17.0156 6.31572 17.1224 6.19561C17.3366 5.95463 17.6631 5.62769 18.1 5.3C18.9708 4.64688 20.2655 4 22 4C24.2007 4 26.1821 5.48421 27.6695 7.87044C29.1466 10.2403 30 13.3067 30 16C30 23.732 23.732 30 16 30C8.26801 30 2 23.732 2 16C2 13.3067 2.85335 10.2403 4.33053 7.87044C5.81791 5.48421 7.79929 4 10 4C11.7345 4 13.0292 4.64688 13.9 5.3C14.3369 5.62769 14.6634 5.95463 14.8776 6.19561C14.9844 6.31572 15.0622 6.41326 15.1108 6.47714C15.1351 6.50903 15.1521 6.5324 15.1616 6.54583ZM10 16C10.5523 16 11 15.5523 11 15C11 14.4477 10.5523 14 10 14C9.44771 14 9 14.4477 9 15C9 15.5523 9.44771 16 10 16ZM19 22.5C19 24.433 17.6569 26 16 26C14.3431 26 13 24.433 13 22.5C13 20.567 14.3431 19 16 19C17.6569 19 19 20.567 19 22.5ZM11 17.5C11 17.7761 9.88071 18 8.5 18C7.11929 18 6 17.7761 6 17.5C6 17.2239 7.11929 17 8.5 17C9.88071 17 11 17.2239 11 17.5ZM23.5 18C24.8807 18 26 17.7761 26 17.5C26 17.2239 24.8807 17 23.5 17C22.1193 17 21 17.2239 21 17.5C21 17.7761 22.1193 18 23.5 18ZM23 15C23 15.5523 22.5523 16 22 16C21.4477 16 21 15.5523 21 15C21 14.4477 21.4477 14 22 14C22.5523 14 23 14.4477 23 15Z" fill="white"/>
<path fill-rule="evenodd" clip-rule="evenodd" d="M16 32C24.8366 32 32 24.8366 32 16C32 7.16344 24.8366 0 16 0C7.16344 0 0 7.16344 0 16C0 24.8366 7.16344 32 16 32ZM16 6C16 6 15.7774 5.66609 15.3322 5.22107C14.4429 4.33218 12.6655 3 10 3C4.61838 3 1 10.2439 1 16C1 24.2843 7.71573 31 16 31C24.2843 31 31 24.2843 31 16C31 10.2439 27.3816 3 22 3C19.3345 3 17.5571 4.33218 16.6678 5.22107C16.2226 5.66609 16 6 16 6Z" fill="white"/>
</svg>
